name ./resultDataOpenSim/trcMotMarkerGrf/sub10/grf-12-06.mot
datacolumns 19
datarows 12
range 0.96400000 1.00800000
endheader

                time	     ground_force_vx	     ground_force_vy	     ground_force_vz	     ground_force_px	     ground_force_py	     ground_force_pz	   l_ground_force_vx	   l_ground_force_vy	   l_ground_force_vz	   l_ground_force_px	   l_ground_force_py	   l_ground_force_pz	     ground_torque_x	     ground_torque_y	     ground_torque_z	   l_ground_torque_x	   l_ground_torque_y	   l_ground_torque_z	
          0.96400000	          0.00000000	          0.00000000	          0.00000000	          0.00000000	          0.00000000	          0.00000000	         18.14436578	        435.17055523	         33.20775479	         -0.03185990	         -0.02500000	         -0.11633011	          0.00000000	          0.00000000	          0.00000000	          0.00000000	         -1.43476262	          0.00000000	
          0.96800000	          0.00000000	          0.00000000	          0.00000000	          0.00000000	          0.00000000	          0.00000000	         20.69063830	        437.88055717	         32.61864433	         -0.03103638	         -0.02500000	         -0.11598908	          0.00000000	          0.00000000	          0.00000000	          0.00000000	         -1.50417962	          0.00000000	
          0.97200000	          0.00000000	          0.00000000	          0.00000000	          0.00000000	          0.00000000	          0.00000000	         23.42243800	        441.41342537	         31.90902134	         -0.03028398	         -0.02500000	         -0.11565835	          0.00000000	          0.00000000	          0.00000000	          0.00000000	         -1.60084853	          0.00000000	
          0.97600000	          0.00000000	          0.00000000	          0.00000000	          0.00000000	          0.00000000	          0.00000000	         26.31541928	        445.91475520	         31.15513630	         -0.02960659	         -0.02500024	         -0.11534229	          0.00000000	          0.00000000	          0.00000000	          0.00000000	         -1.72044923	          0.00000000	
          0.98000000	          0.00000000	          0.00000000	          0.00000000	          0.00000000	          0.00000000	          0.00000000	         29.32014169	        451.60282077	         30.44228722	         -0.02900133	         -0.02500100	         -0.11502761	          0.00000000	          0.00000000	          0.00000000	          0.00000000	         -1.85799281	          0.00000000	
          0.98400000	          0.00000000	          0.00000000	          0.00000000	          0.00000000	          0.00000000	          0.00000000	         32.39614971	        458.64800564	         29.84815047	         -0.02844568	         -0.02500100	         -0.11468982	          0.00000000	          0.00000000	          0.00000000	          0.00000000	         -2.00828067	          0.00000000	
          0.98800000	          0.00000000	          0.00000000	          0.00000000	          0.00000000	          0.00000000	          0.00000000	         35.53509165	        467.02037139	         29.42689224	         -0.02791988	         -0.02500100	         -0.11433068	          0.00000000	          0.00000000	          0.00000000	          0.00000000	         -2.16637607	          0.00000000	
          0.99200000	          0.00000000	          0.00000000	          0.00000000	          0.00000000	          0.00000000	          0.00000000	         38.76142364	        476.47546117	         29.20889534	         -0.02744936	         -0.02500108	         -0.11400198	          0.00000000	          0.00000000	          0.00000000	          0.00000000	         -2.32816522	          0.00000000	
          0.99600000	          0.00000000	          0.00000000	          0.00000000	          0.00000000	          0.00000000	          0.00000000	         42.11824803	        486.71949202	         29.20871715	         -0.02709135	         -0.02500200	         -0.11377939	          0.00000000	          0.00000000	          0.00000000	          0.00000000	         -2.49090039	          0.00000000	
          1.00000000	          0.00000000	          0.00000000	          0.00000000	          0.00000000	          0.00000000	          0.00000000	         45.64613581	        497.60457033	         29.42642010	         -0.02686895	         -0.02500200	         -0.11370780	          0.00000000	          0.00000000	          0.00000000	          0.00000000	         -2.65353949	          0.00000000	
          1.00400000	          0.00000000	          0.00000000	          0.00000000	          0.00000000	          0.00000000	          0.00000000	         49.36690665	        509.19264131	         29.84290860	         -0.02675309	         -0.02500200	         -0.11375870	          0.00000000	          0.00000000	          0.00000000	          0.00000000	         -2.81672514	          0.00000000	
          1.00800000	          0.00000000	          0.00000000	          0.00000000	          0.00000000	          0.00000000	          0.00000000	         53.28144468	        521.64127184	         30.42480796	         -0.02667178	         -0.02500200	         -0.11382250	          0.00000000	          0.00000000	          0.00000000	          0.00000000	         -2.98233221	          0.00000000	
